<svg xmlns="http://www.w3.org/2000/svg" enable-background="new 0 0 32 32" viewBox="0 0 32 32" id="dinner"><path d="M2.5,12c0-1.1,0.2-2.3,0.6-3.3C3.4,7.8,3.6,6.9,3.5,6c0-0.6,0.4-1,1-1s1,0.4,1,1c0,1.1-0.2,2.3-0.6,3.3
	C4.6,10.1,4.4,11,4.4,12c0,0.6-0.4,1-1,1S2.5,12.6,2.5,12z M7.7,10c0.6,0,1-0.4,1-1c0-0.4,0.1-0.8,0.2-1.2C9.2,7.3,9.3,6.6,9.3,6
	s-0.4-1-1-1s-1,0.4-1,1c0,0.4-0.1,0.8-0.2,1.2C6.8,7.7,6.7,8.4,6.7,9S7.2,10,7.7,10z M27.5,12c0,0.6,0.4,1,1,1s1-0.4,1-1
	c0-1.1-0.2-2.3-0.6-3.3C28.6,7.9,28.4,7,28.4,6c0-0.6-0.4-1-1-1s-1,0.4-1,1c0,1.1,0.2,2.3,0.6,3.3C27.4,10.2,27.6,11.1,27.5,12z
	 M23.3,9c0,0.6,0.4,1,1,1s1-0.4,1-1S25.2,7.7,25,7.2c-0.1-0.4-0.2-0.8-0.2-1.2c0-0.6-0.4-1-1-1s-1,0.4-1,1s0.1,1.3,0.3,1.8
	C23.2,8.2,23.3,8.6,23.3,9z M4,22h24c0-6-4.4-11-10.4-11.9C18.3,9.2,18,8,17.1,7.3S15,7,14.3,7.9c-0.5,0.7-0.5,1.6,0,2.3
	C8.4,11,4,16,4,22z M3.6,25.7C4.1,26.5,5.1,27,6.1,27H26c1,0,1.9-0.5,2.5-1.3l1.1-1.7H2.5L3.6,25.7z"></path></svg>